<svg xmlns="http://www.w3.org/2000/svg" xmlns:xlink="http://www.w3.org/1999/xlink" contentStyleType="text/css" data-diagram-type="ACTIVITY" height="615px" preserveAspectRatio="none" style="width:455px;height:615px;background:#FFFFFF;" version="1.1" viewBox="0 0 455 615" width="455px" zoomAndPan="magnify"><title>&#19968;&#26465;&#20505;&#36873;&#25552;&#31034;&#22914;&#20309;&#36827;&#20837;&#24555;&#24930;&#36335;&#24452;</title><defs/><g><g class="title" data-source-line="14"><text fill="#000000" font-family="'Noto Sans CJK SC'" font-size="14" font-weight="bold" lengthAdjust="spacing" textLength="195.9991" x="128.3747" y="36.2399">&#19968;&#26465;&#20505;&#36873;&#25552;&#31034;&#22914;&#20309;&#36827;&#20837;&#24555;&#24930;&#36335;&#24452;</text></g><ellipse cx="270.6867" cy="61.2719" fill="#222222" rx="10" ry="10" style="stroke:#222222;stroke-width:1;"/><rect fill="#F1F1F1" height="40.2719" rx="6" ry="6" style="stroke:#181818;stroke-width:0.5;" width="123.2496" x="209.0619" y="91.2719"/><text fill="#000000" font-family="'Noto Sans CJK SC'" font-size="14" lengthAdjust="spacing" textLength="103.2496" x="219.0619" y="117.5118">S1 &#28210;&#26579;&#33521;&#25991;&#23383;&#24149;</text><rect fill="#F1F1F1" height="40.2719" rx="6" ry="6" style="stroke:#181818;stroke-width:0.5;" width="137.2495" x="202.0619" y="151.5438"/><text fill="#000000" font-family="'Noto Sans CJK SC'" font-size="14" lengthAdjust="spacing" textLength="117.2495" x="212.0619" y="177.7838">S2 &#24402;&#19968;&#21270;&#26377;&#38480;&#29255;&#27573;</text><rect fill="#F1F1F1" height="40.2719" rx="6" ry="6" style="stroke:#181818;stroke-width:0.5;" width="137.2495" x="202.0619" y="211.8157"/><text fill="#000000" font-family="'Noto Sans CJK SC'" font-size="14" lengthAdjust="spacing" textLength="117.2495" x="212.0619" y="238.0557">S3 &#35835;&#21462;&#35789;&#24211;&#19982;&#29366;&#24577;</text><rect fill="#F1F1F1" height="40.2719" rx="6" ry="6" style="stroke:#181818;stroke-width:0.5;" width="123.2496" x="209.0619" y="272.0876"/><text fill="#000000" font-family="'Noto Sans CJK SC'" font-size="14" lengthAdjust="spacing" textLength="103.2496" x="219.0619" y="298.3276">S4 &#35780;&#20272;&#25552;&#31034;&#38656;&#27714;</text><polygon fill="#F1F1F1" points="235.6868,333.1635,305.6865,333.1635,317.6865,345.1635,305.6865,357.1635,235.6868,357.1635,223.6868,345.1635,235.6868,333.1635" style="stroke:#181818;stroke-width:0.5;"/><text fill="#000000" font-family="'Noto Sans CJK SC'" font-size="14" lengthAdjust="spacing" textLength="69.9997" x="235.6868" y="351.2674">&#38656;&#35201;&#24110;&#21161;&#65311;</text><text fill="#000000" font-family="'Noto Sans CJK SC'" font-size="14" lengthAdjust="spacing" textLength="13.9999" x="209.6869" y="341.1315">&#26159;</text><text fill="#000000" font-family="'Noto Sans CJK SC'" font-size="14" lengthAdjust="spacing" textLength="13.9999" x="317.6865" y="341.1315">&#21542;</text><rect fill="#F1F1F1" height="40.2719" rx="6" ry="6" style="stroke:#181818;stroke-width:0.5;" width="123.2496" x="89.6247" y="367.1635"/><text fill="#000000" font-family="'Noto Sans CJK SC'" font-size="14" lengthAdjust="spacing" textLength="103.2496" x="99.6247" y="393.4034">S5 &#26597;&#35810;&#35821;&#22659;&#32531;&#23384;</text><polygon fill="#F1F1F1" points="95.2498,428.2393,207.2493,428.2393,219.2493,440.2393,207.2493,452.2393,95.2498,452.2393,83.2498,440.2393,95.2498,428.2393" style="stroke:#181818;stroke-width:0.5;"/><text fill="#000000" font-family="'Noto Sans CJK SC'" font-size="14" lengthAdjust="spacing" textLength="111.9995" x="95.2498" y="446.3432">&#26377;&#21487;&#38752;&#35821;&#20041;&#35777;&#25454;&#65311;</text><text fill="#000000" font-family="'Noto Sans CJK SC'" font-size="14" lengthAdjust="spacing" textLength="13.9999" x="69.2498" y="436.2073">&#26159;</text><text fill="#000000" font-family="'Noto Sans CJK SC'" font-size="14" lengthAdjust="spacing" textLength="13.9999" x="219.2493" y="436.2073">&#21542;</text><rect fill="#F1F1F1" height="40.2719" rx="6" ry="6" style="stroke:#181818;stroke-width:0.5;" width="123.2496" x="11" y="462.2393"/><text fill="#000000" font-family="'Noto Sans CJK SC'" font-size="14" lengthAdjust="spacing" textLength="103.2496" x="21" y="488.4792">S6 &#24418;&#25104;&#24555;&#36895;&#25552;&#31034;</text><rect fill="#F1F1F1" height="40.2719" rx="6" ry="6" style="stroke:#181818;stroke-width:0.5;" width="151.2494" x="154.2496" y="462.2393"/><text fill="#000000" font-family="'Noto Sans CJK SC'" font-size="14" lengthAdjust="spacing" textLength="131.2494" x="164.2496" y="488.4792">S7 &#24418;&#25104;&#35821;&#20041;&#24037;&#20316;&#24847;&#22270;</text><polygon fill="#F1F1F1" points="151.2495,508.5112,163.2495,520.5112,151.2495,532.5112,139.2495,520.5112,151.2495,508.5112" style="stroke:#181818;stroke-width:0.5;"/><rect fill="#F1F1F1" height="40.2719" rx="6" ry="6" style="stroke:#181818;stroke-width:0.5;" width="109.2496" x="335.499" y="367.1635"/><text fill="#000000" font-family="'Noto Sans CJK SC'" font-size="14" lengthAdjust="spacing" textLength="89.2496" x="345.499" y="393.4034">S8 &#36820;&#22238;&#31354;&#25552;&#31034;</text><polygon fill="#F1F1F1" points="270.6867,538.5112,282.6867,550.5112,270.6867,562.5112,258.6867,550.5112,270.6867,538.5112" style="stroke:#181818;stroke-width:0.5;"/><ellipse cx="270.6867" cy="593.5112" fill="none" rx="11" ry="11" style="stroke:#222222;stroke-width:1;"/><ellipse cx="270.6867" cy="593.5112" fill="#222222" rx="6" ry="6" style="stroke:#222222;stroke-width:1;"/><line style="stroke:#475569;stroke-width:1;" x1="270.6867" x2="270.6867" y1="71.2719" y2="91.2719"/><polygon fill="#475569" points="266.6867,81.2719,270.6867,91.2719,274.6867,81.2719,270.6867,85.2719" style="stroke:#475569;stroke-width:1;"/><line style="stroke:#475569;stroke-width:1;" x1="270.6867" x2="270.6867" y1="131.5438" y2="151.5438"/><polygon fill="#475569" points="266.6867,141.5438,270.6867,151.5438,274.6867,141.5438,270.6867,145.5438" style="stroke:#475569;stroke-width:1;"/><line style="stroke:#475569;stroke-width:1;" x1="270.6867" x2="270.6867" y1="191.8157" y2="211.8157"/><polygon fill="#475569" points="266.6867,201.8157,270.6867,211.8157,274.6867,201.8157,270.6867,205.8157" style="stroke:#475569;stroke-width:1;"/><line style="stroke:#475569;stroke-width:1;" x1="270.6867" x2="270.6867" y1="252.0876" y2="272.0876"/><polygon fill="#475569" points="266.6867,262.0876,270.6867,272.0876,274.6867,262.0876,270.6867,266.0876" style="stroke:#475569;stroke-width:1;"/><line style="stroke:#475569;stroke-width:1;" x1="83.2498" x2="72.6248" y1="440.2393" y2="440.2393"/><line style="stroke:#475569;stroke-width:1;" x1="72.6248" x2="72.6248" y1="440.2393" y2="462.2393"/><polygon fill="#475569" points="68.6248,452.2393,72.6248,462.2393,76.6248,452.2393,72.6248,456.2393" style="stroke:#475569;stroke-width:1;"/><line style="stroke:#475569;stroke-width:1;" x1="219.2493" x2="229.8743" y1="440.2393" y2="440.2393"/><line style="stroke:#475569;stroke-width:1;" x1="229.8743" x2="229.8743" y1="440.2393" y2="462.2393"/><polygon fill="#475569" points="225.8743,452.2393,229.8743,462.2393,233.8743,452.2393,229.8743,456.2393" style="stroke:#475569;stroke-width:1;"/><line style="stroke:#475569;stroke-width:1;" x1="72.6248" x2="72.6248" y1="502.5112" y2="520.5112"/><line style="stroke:#475569;stroke-width:1;" x1="72.6248" x2="139.2495" y1="520.5112" y2="520.5112"/><polygon fill="#475569" points="129.2495,516.5112,139.2495,520.5112,129.2495,524.5112,133.2495,520.5112" style="stroke:#475569;stroke-width:1;"/><line style="stroke:#475569;stroke-width:1;" x1="229.8743" x2="229.8743" y1="502.5112" y2="520.5112"/><line style="stroke:#475569;stroke-width:1;" x1="229.8743" x2="163.2495" y1="520.5112" y2="520.5112"/><polygon fill="#475569" points="173.2495,516.5112,163.2495,520.5112,173.2495,524.5112,169.2495,520.5112" style="stroke:#475569;stroke-width:1;"/><line style="stroke:#475569;stroke-width:1;" x1="151.2495" x2="151.2495" y1="407.4354" y2="428.2393"/><polygon fill="#475569" points="147.2495,418.2393,151.2495,428.2393,155.2495,418.2393,151.2495,422.2393" style="stroke:#475569;stroke-width:1;"/><line style="stroke:#475569;stroke-width:1;" x1="223.6868" x2="151.2495" y1="345.1635" y2="345.1635"/><line style="stroke:#475569;stroke-width:1;" x1="151.2495" x2="151.2495" y1="345.1635" y2="367.1635"/><polygon fill="#475569" points="147.2495,357.1635,151.2495,367.1635,155.2495,357.1635,151.2495,361.1635" style="stroke:#475569;stroke-width:1;"/><line style="stroke:#475569;stroke-width:1;" x1="317.6865" x2="390.1238" y1="345.1635" y2="345.1635"/><line style="stroke:#475569;stroke-width:1;" x1="390.1238" x2="390.1238" y1="345.1635" y2="367.1635"/><polygon fill="#475569" points="386.1238,357.1635,390.1238,367.1635,394.1238,357.1635,390.1238,361.1635" style="stroke:#475569;stroke-width:1;"/><line style="stroke:#475569;stroke-width:1;" x1="151.2495" x2="151.2495" y1="532.5112" y2="550.5112"/><line style="stroke:#475569;stroke-width:1;" x1="151.2495" x2="258.6867" y1="550.5112" y2="550.5112"/><polygon fill="#475569" points="248.6867,546.5112,258.6867,550.5112,248.6867,554.5112,252.6867,550.5112" style="stroke:#475569;stroke-width:1;"/><line style="stroke:#475569;stroke-width:1;" x1="390.1238" x2="390.1238" y1="407.4354" y2="550.5112"/><line style="stroke:#475569;stroke-width:1;" x1="390.1238" x2="282.6867" y1="550.5112" y2="550.5112"/><polygon fill="#475569" points="292.6867,546.5112,282.6867,550.5112,292.6867,554.5112,288.6867,550.5112" style="stroke:#475569;stroke-width:1;"/><line style="stroke:#475569;stroke-width:1;" x1="270.6867" x2="270.6867" y1="312.3596" y2="333.1635"/><polygon fill="#475569" points="266.6867,323.1635,270.6867,333.1635,274.6867,323.1635,270.6867,327.1635" style="stroke:#475569;stroke-width:1;"/><line style="stroke:#475569;stroke-width:1;" x1="270.6867" x2="270.6867" y1="562.5112" y2="582.5112"/><polygon fill="#475569" points="266.6867,572.5112,270.6867,582.5112,274.6867,572.5112,270.6867,576.5112" style="stroke:#475569;stroke-width:1;"/><!--SRC=[TPB1RX917CRl-nIJUg77rgLKE1L83nfxsISOsO5kM6PmTaYZfwNILAejH2osWOeI8MaCh3NHKeJoCZl3Sl8Ld2tKh5htDFb_l_c-xpzPAslWFAGm1vx0L3P3IG7h2M8I2kvjtdoAzPkmjg5ETWoS0MbeMYYWOA8Z2-M1kXuOKeYp_Z2y6XZgA0qB9jiac6t1709BMuGHe45iWSJ3Hq1BBDqDQyPp15RKWBX1ATbPL5KZuV3QWs2slqUAK8meM0dcv-MMC8Cqzin4WA8KWpXZ1bT9aLoUO2GJ_ujWmb3yZjUA9ED_KuJgY2w8f1fNmydWUwAd1OHJw36oBDbfmpGo6AHaDA8ACvXCTmUsEFl8xTEPNHQLwlJJa7TttV6nDsdmlGwVV1PxRU_IuTSbnMAGCYMghG0n-2fQDU_LXQZlyzuxVdKSa_DLmCTlf1z_NHVDykoqEYtlY_utNxeFFES7hzGzvv0FQ-xWQ7hmNTX5NrAbL797N-RXiwOjBdPZYf468NdskaK-wFE3yv-ZrZ9WsmY3a3XnbXK0ebeOY5R7SzgUq-Fj5zDHZVTEObBnxye2lEBCpZv8qRqgUqvH7FR_DV5jrcJjjdXPbRlExDQyXc-3v0y8GhpQlGKZ2t1koIyxxhWfIXNUkBx1iMwabJykHRLru4tUyiRxwVdmrdZEMOpaVm40]--></g></svg>