<svg xmlns="http://www.w3.org/2000/svg" xmlns:xlink="http://www.w3.org/1999/xlink" contentStyleType="text/css" data-diagram-type="DESCRIPTION" height="598px" preserveAspectRatio="none" style="width:586px;height:598px;background:#FFFFFF;" version="1.1" viewBox="0 0 586 598" width="586px" zoomAndPan="magnify"><title>&#21516;&#19968;&#24212;&#29992;&#30340;&#20004;&#20010;&#36827;&#31243;&#19982;&#22806;&#37096;&#20381;&#36182;</title><defs/><g><g class="title" data-source-line="14"><text fill="#000000" font-family="'Noto Sans CJK SC'" font-size="14" font-weight="bold" lengthAdjust="spacing" textLength="195.9991" x="188.0004" y="26.2399">&#21516;&#19968;&#24212;&#29992;&#30340;&#20004;&#20010;&#36827;&#31243;&#19982;&#22806;&#37096;&#20381;&#36182;</text></g><!--cluster client_zone--><g class="cluster" data-entity="client_zone" data-source-line="16" data-uid="ent0002" id="cluster_client_zone"><polygon fill="none" points="16,57.2719,26,47.2719,208,47.2719,208,147.5519,198,157.5519,16,157.5519,16,57.2719" style="stroke:#181818;stroke-width:1;"/><line style="stroke:#181818;stroke-width:1;" x1="198" x2="208" y1="57.2719" y2="47.2719"/><line style="stroke:#181818;stroke-width:1;" x1="16" x2="198" y1="57.2719" y2="57.2719"/><line style="stroke:#181818;stroke-width:1;" x1="198" x2="198" y1="57.2719" y2="157.5519"/><text fill="#000000" font-family="'Noto Sans CJK SC'" font-size="14" font-weight="bold" lengthAdjust="spacing" textLength="55.9998" x="80.0001" y="76.5118">&#29992;&#25143;&#35774;&#22791;</text></g><!--cluster server_zone--><g class="cluster" data-entity="server_zone" data-source-line="19" data-uid="ent0004" id="cluster_server_zone"><polygon fill="none" points="39,221.5519,49,211.5519,373,211.5519,373,469.5919,363,479.5919,39,479.5919,39,221.5519" style="stroke:#181818;stroke-width:1;"/><line style="stroke:#181818;stroke-width:1;" x1="363" x2="373" y1="221.5519" y2="211.5519"/><line style="stroke:#181818;stroke-width:1;" x1="39" x2="363" y1="221.5519" y2="221.5519"/><line style="stroke:#181818;stroke-width:1;" x1="363" x2="363" y1="221.5519" y2="479.5919"/><text fill="#000000" font-family="'Noto Sans CJK SC'" font-size="14" font-weight="bold" lengthAdjust="spacing" textLength="106.9736" x="148.5132" y="240.7918">LexiFlow &#26381;&#21153;&#21306;</text></g><!--cluster provider_zone--><g class="cluster" data-entity="provider_zone" data-source-line="25" data-uid="ent0009" id="cluster_provider_zone"><polygon fill="none" points="397,379.8219,407,369.8219,569,369.8219,569,470.0919,559,480.0919,397,480.0919,397,379.8219" style="stroke:#181818;stroke-width:1;"/><line style="stroke:#181818;stroke-width:1;" x1="559" x2="569" y1="379.8219" y2="369.8219"/><line style="stroke:#181818;stroke-width:1;" x1="397" x2="559" y1="379.8219" y2="379.8219"/><line style="stroke:#181818;stroke-width:1;" x1="559" x2="559" y1="379.8219" y2="480.0919"/><text fill="#000000" font-family="'Noto Sans CJK SC'" font-size="14" font-weight="bold" lengthAdjust="spacing" textLength="69.9997" x="444.0002" y="399.0618">&#22806;&#37096;&#33021;&#21147;&#21306;</text></g><!--entity extension--><g class="entity" data-entity="extension" data-source-line="17" data-uid="ent0003" id="entity_extension"><polygon fill="#F1F1F1" points="32.29,101.2719,42.29,91.2719,191.7095,91.2719,191.7095,131.5438,181.7095,141.5438,32.29,141.5438,32.29,101.2719" style="stroke:#181818;stroke-width:0.5;"/><line style="stroke:#181818;stroke-width:0.5;" x1="181.7095" x2="191.7095" y1="101.2719" y2="91.2719"/><line style="stroke:#181818;stroke-width:0.5;" x1="32.29" x2="181.7095" y1="101.2719" y2="101.2719"/><line style="stroke:#181818;stroke-width:0.5;" x1="181.7095" x2="181.7095" y1="101.2719" y2="141.5438"/><text fill="#000000" font-family="'Noto Sans CJK SC'" font-size="14" lengthAdjust="spacing" textLength="119.4195" x="47.29" y="127.5118">Chrome Extension</text></g><!--entity api--><g class="entity" data-entity="api" data-source-line="20" data-uid="ent0005" id="entity_api"><polygon fill="#F1F1F1" points="54.93,265.5519,64.93,255.5519,169.0737,255.5519,169.0737,295.8238,159.0737,305.8238,54.93,305.8238,54.93,265.5519" style="stroke:#181818;stroke-width:0.5;"/><line style="stroke:#181818;stroke-width:0.5;" x1="159.0737" x2="169.0737" y1="265.5519" y2="255.5519"/><line style="stroke:#181818;stroke-width:0.5;" x1="54.93" x2="159.0737" y1="265.5519" y2="265.5519"/><line style="stroke:#181818;stroke-width:0.5;" x1="159.0737" x2="159.0737" y1="265.5519" y2="305.8238"/><text fill="#000000" font-family="'Noto Sans CJK SC'" font-size="14" lengthAdjust="spacing" textLength="74.1437" x="69.93" y="291.7918">api process</text></g><!--entity worker--><g class="entity" data-entity="worker" data-source-line="21" data-uid="ent0006" id="entity_worker"><polygon fill="#F1F1F1" points="217.1,265.5519,227.1,255.5519,356.8916,255.5519,356.8916,295.8238,346.8916,305.8238,217.1,305.8238,217.1,265.5519" style="stroke:#181818;stroke-width:0.5;"/><line style="stroke:#181818;stroke-width:0.5;" x1="346.8916" x2="356.8916" y1="265.5519" y2="255.5519"/><line style="stroke:#181818;stroke-width:0.5;" x1="217.1" x2="346.8916" y1="265.5519" y2="265.5519"/><line style="stroke:#181818;stroke-width:0.5;" x1="346.8916" x2="346.8916" y1="265.5519" y2="305.8238"/><text fill="#000000" font-family="'Noto Sans CJK SC'" font-size="14" lengthAdjust="spacing" textLength="99.7916" x="232.1" y="291.7918">worker process</text></g><!--entity postgres--><g class="entity" data-entity="postgres" data-source-line="22" data-uid="ent0007" id="entity_postgres"><path d="M223.7,424.3219 C223.7,414.3219 271.9968,414.3219 271.9968,414.3219 C271.9968,414.3219 320.2937,414.3219 320.2937,424.3219 L320.2937,453.5938 C320.2937,463.5938 271.9968,463.5938 271.9968,463.5938 C271.9968,463.5938 223.7,463.5938 223.7,453.5938 L223.7,424.3219" fill="#F1F1F1" style="stroke:#181818;stroke-width:0.5;"/><path d="M223.7,424.3219 C223.7,434.3219 271.9968,434.3219 271.9968,434.3219 C271.9968,434.3219 320.2937,434.3219 320.2937,424.3219" fill="none" style="stroke:#181818;stroke-width:0.5;"/><text fill="#000000" font-family="'Noto Sans CJK SC'" font-size="14" lengthAdjust="spacing" textLength="76.5937" x="233.7" y="454.5618">PostgreSQL</text></g><!--entity redis--><g class="entity" data-entity="redis" data-source-line="23" data-uid="ent0008" id="entity_redis"><path d="M63.36,424.3219 C63.36,414.3219 111.9998,414.3219 111.9998,414.3219 C111.9998,414.3219 160.6397,414.3219 160.6397,424.3219 L160.6397,453.5938 C160.6397,463.5938 111.9998,463.5938 111.9998,463.5938 C111.9998,463.5938 63.36,463.5938 63.36,453.5938 L63.36,424.3219" fill="#F1F1F1" style="stroke:#181818;stroke-width:0.5;"/><path d="M63.36,424.3219 C63.36,434.3219 111.9998,434.3219 111.9998,434.3219 C111.9998,434.3219 160.6397,434.3219 160.6397,424.3219" fill="none" style="stroke:#181818;stroke-width:0.5;"/><text fill="#000000" font-family="'Noto Sans CJK SC'" font-size="14" lengthAdjust="spacing" textLength="77.2797" x="73.36" y="454.5618">Redis cache</text></g><!--entity provider--><g class="entity" data-entity="provider" data-source-line="26" data-uid="ent0010" id="entity_provider"><polygon fill="#F1F1F1" points="413.41,423.8219,423.41,413.8219,552.5996,413.8219,552.5996,454.0938,542.5996,464.0938,413.41,464.0938,413.41,423.8219" style="stroke:#181818;stroke-width:0.5;"/><line style="stroke:#181818;stroke-width:0.5;" x1="542.5996" x2="552.5996" y1="423.8219" y2="413.8219"/><line style="stroke:#181818;stroke-width:0.5;" x1="413.41" x2="542.5996" y1="423.8219" y2="423.8219"/><line style="stroke:#181818;stroke-width:0.5;" x1="542.5996" x2="542.5996" y1="423.8219" y2="464.0938"/><text fill="#000000" font-family="'Noto Sans CJK SC'" font-size="14" lengthAdjust="spacing" textLength="99.1896" x="428.41" y="450.0618">Model Provider</text></g><!--link extension to api--><g class="link" data-entity-1="extension" data-entity-2="api" data-source-line="28" data-uid="lnk11" id="link_extension_api"><path d="M112,141.7019 C112,172.3019 112,218.5519 112,249.2219" fill="none" id="extension-to-api" style="stroke:#475569;stroke-width:1;"/><polygon fill="#475569" points="112,255.2219,116,246.2219,112,250.2219,108,246.2219,112,255.2219" style="stroke:#475569;stroke-width:1;"/><text fill="#000000" font-family="'Noto Sans CJK SC'" font-size="14" lengthAdjust="spacing" textLength="16.0159" x="113" y="190.7918">E1</text></g><!--link api to postgres--><g class="link" data-entity-1="api" data-entity-2="postgres" data-source-line="29" data-uid="lnk12" id="link_api_postgres"><path d="M137,306.1019 C167.15,335.5419 213.1975,380.5197 243.1475,409.7697" fill="none" id="api-to-postgres" style="stroke:#475569;stroke-width:1;"/><polygon fill="#475569" points="247.44,413.9619,243.796,404.812,243.8629,410.4684,238.2065,410.5353,247.44,413.9619" style="stroke:#475569;stroke-width:1;"/><text fill="#000000" font-family="'Noto Sans CJK SC'" font-size="14" lengthAdjust="spacing" textLength="16.0159" x="183.42" y="349.0618">E2</text></g><!--link worker to postgres--><g class="link" data-entity-1="worker" data-entity-2="postgres" data-source-line="30" data-uid="lnk13" id="link_worker_postgres"><path d="M284.66,306.1019 C281.83,335.5419 277.6838,378.7394 274.8738,407.9894" fill="none" id="worker-to-postgres" style="stroke:#475569;stroke-width:1;"/><polygon fill="#475569" points="274.3,413.9619,279.1423,405.3857,274.7781,408.9848,271.179,404.6206,274.3,413.9619" style="stroke:#475569;stroke-width:1;"/><text fill="#000000" font-family="'Noto Sans CJK SC'" font-size="14" lengthAdjust="spacing" textLength="16.0159" x="283.15" y="349.0618">E3</text></g><!--link api to redis--><g class="link" data-entity-1="api" data-entity-2="redis" data-source-line="31" data-uid="lnk14" id="link_api_redis"><path d="M112,306.1019 C112,335.5419 112,378.7119 112,407.9619" fill="none" id="api-to-redis" style="stroke:#475569;stroke-width:1;"/><polygon fill="#475569" points="112,413.9619,116,404.9619,112,408.9619,108,404.9619,112,413.9619" style="stroke:#475569;stroke-width:1;"/><text fill="#000000" font-family="'Noto Sans CJK SC'" font-size="14" lengthAdjust="spacing" textLength="16.0159" x="113" y="349.0618">E4</text></g><!--link worker to provider--><g class="link" data-entity-1="worker" data-entity-2="provider" data-source-line="32" data-uid="lnk15" id="link_worker_provider"><path d="M317.62,306.1019 C354.34,335.3719 410.8187,380.4014 447.5787,409.7114" fill="none" id="worker-to-provider" style="stroke:#475569;stroke-width:1;"/><polygon fill="#475569" points="452.27,413.4519,447.7267,404.7136,448.3606,410.3348,442.7393,410.9686,452.27,413.4519" style="stroke:#475569;stroke-width:1;"/><text fill="#000000" font-family="'Noto Sans CJK SC'" font-size="14" lengthAdjust="spacing" textLength="16.0159" x="374.27" y="349.0618">E5</text></g><g class="legend" data-source-line="33"><rect fill="none" height="70.8157" rx="6" ry="6" style="stroke:#000000;stroke-width:1;" width="223.8071" x="174.0964" y="508.0919"/><text fill="#000000" font-family="'Noto Sans CJK SC'" font-size="14" lengthAdjust="spacing" textLength="213.8071" x="179.0964" y="529.3318">E1 &#27983;&#35272;&#22120;&#35831;&#27714;&#65307;E2/E3 &#20107;&#23454;&#19982;&#24037;&#20316;</text><text fill="#000000" font-family="'Noto Sans CJK SC'" font-size="14" lengthAdjust="spacing" textLength="136.3034" x="179.0964" y="549.6038">E4 &#32531;&#23384;&#65307;E5 &#22806;&#37096;&#27169;&#22411;</text><text fill="#000000" font-family="'Noto Sans CJK SC'" font-size="14" lengthAdjust="spacing" textLength="209.9991" x="179.0964" y="569.8757">&#36816;&#34892;&#36131;&#20219;&#22270;&#65292;&#19981;&#25215;&#35834;&#20855;&#20307;&#37096;&#32626;&#32534;&#25490;</text></g><!--SRC=[TPBVJXD15CRlzobEwZKnXQse5oPGoeK2GVi0PjWzB9ikC-lCG15ZOaGZyayYXAX54YB6naI8HjAcjF0okzlrYbTmfbsQ1N4lDdlE-SsSxpjdHScbFk5a5gQ8LN8ucwDsddcCmutHpcE87Y5cYCtABdLWcdW2KnNAR1JeWtaxbUI4bdGorvzAsZXDvZmvogYS8BC8cGac6HG95P2__m2A-SprSD5THCYQgU8GvwoSI3K7SxbRTzAzjG-BSOeSikd-ld9972pAfnu2HqiIwdXfAnQRzHb5rV6_26KIXw-Prk38y5MASHjvGeoOmsPk93rFV3A7rC9n549f6l9SXuAbMYCtf2jLzt1pBQY_21lRxUrg-zEhe7uGrB_7PvLsTJMeRuG7Et-Mgi7fv_Xunv3C1pN9AIObKvDpjN2NKKEl1ZBgVBHSYmzFmuCt6I02BCzLZHulAglmp03eOlaPpjHI2WiIgL2dEoXUHCRpvBOnN717FLQ6Q7SzNDaFrneTK22VHtxrJkAxu7DcAPCTIiMzMfdnajfGkjnDAS8caamHeQX99gJ3iVXmh4FutL1SOXwXxIfNn9h13iHrt1FSdLIyr0fNAXTgLTDvr_vNxxXwUp2PL2-XwhxUCA2lxvxs0dUXa3NqXqvSQDFPVYEnTxKmqCCxAdNAlCGcxNGXPtZe8BMJnIgLXIn4n-_YRylXnsfyL8j-lZnlLWhzDmi343HMmyCz_MVKlWQjNGsRq6vkXJy-Q2O7tJb4rVrmRrLLuxFDU7yj_lqbE3a9AwVdJVMthKTlp-AZHlYw5hIs5Dnk_MetTwADzuPIqTNo5m00]--></g></svg>